<svg width="0" height="0" class="hidden">
  <symbol version="1.1" id="race-icon" xmlns="http://www.w3.org/2000/svg" xmlns:xlink="http://www.w3.org/1999/xlink" x="0px" y="0px" xml:space="preserve" viewBox="0 0 106.06 122.88">
    <g>
      <path d="M0,4.16C0,1.86,1.86,0,4.16,0c2.3,0,4.16,1.86,4.16,4.16v6.34h94.62c1.72,0,3.12,1.4,3.12,3.12v66.8 c0,1.72-1.4,3.12-3.12,3.12H8.32v35.18c0,2.3-1.86,4.16-4.16,4.16c-2.3,0-4.16-1.86-4.16-4.16V4.16L0,4.16z M84.42,55.3h15.4V37.73 h-15.4V55.3L84.42,55.3z M82.06,77.3V57.66H64.94V77.3H82.06L82.06,77.3z M82.06,35.37V16.74H64.94v18.63H82.06L82.06,35.37z M43.1,77.3V57.66H25.97V77.3H43.1L43.1,77.3z M45.46,55.3h17.12V37.73H45.46V55.3L45.46,55.3z M43.1,35.37V16.74H25.97v18.63H43.1 L43.1,35.37z M23.62,55.3V37.73H8.43V55.3H23.62L23.62,55.3z"></path>
    </g>
  </symbol>
  <symbol version="1.1" id="close-round-icon" xmlns="http://www.w3.org/2000/svg" xmlns:xlink="http://www.w3.org/1999/xlink" x="0px" y="0px" enable-background="new 0 0 122.881 122.88" xml:space="preserve" viewBox="0 0 122.881 122.88">
    <g>
      <path fill-rule="evenodd" clip-rule="evenodd" d="M61.44,0c33.933,0,61.441,27.507,61.441,61.439 c0,33.933-27.508,61.44-61.441,61.44C27.508,122.88,0,95.372,0,61.439C0,27.507,27.508,0,61.44,0L61.44,0z M81.719,36.226 c1.363-1.363,3.572-1.363,4.936,0c1.363,1.363,1.363,3.573,0,4.936L66.375,61.439l20.279,20.278c1.363,1.363,1.363,3.573,0,4.937 c-1.363,1.362-3.572,1.362-4.936,0L61.44,66.376L41.162,86.654c-1.362,1.362-3.573,1.362-4.936,0c-1.363-1.363-1.363-3.573,0-4.937 l20.278-20.278L36.226,41.162c-1.363-1.363-1.363-3.573,0-4.936c1.363-1.363,3.573-1.363,4.936,0L61.44,56.504L81.719,36.226 L81.719,36.226z"></path>
    </g>
  </symbol>
  <symbol id="avif-file-icon" xmlns="http://www.w3.org/2000/svg" viewBox="0 0 115.28 122.88">
    <defs></defs>
    <title>avif-file</title>
    <path d="M21,57H90.25V37.34H69.59A10.85,10.85,0,0,1,63,34.74a9.41,9.41,0,0,1-2.3-6.17V7.64H8.15a.59.59,0,0,0-.42.18.45.45,0,0,0-.18.42V114.69a.67.67,0,0,0,.18.41.51.51,0,0,0,.42.19h81.5c.19,0,.18-.1.27-.19s.33-.27.33-.41V103.53H21A7.58,7.58,0,0,1,13.47,96V64.55A7.58,7.58,0,0,1,21,57ZM34.23,91.69H26.56L32.45,69H43.67l5.89,22.7H41.89l-.83-3.6h-6l-.83,3.6ZM37.86,76l-1.49,6.36h3.34L38.26,76Zm25.46-7H71l-5.63,22.7H54.75L49.12,69h7.66l3.09,14.42h.33L63.32,69Zm10.57,22.7V69h7.27v22.7Zm25.43-8.43H93.14v8.43H85.88V69h14.89l-.91,5.81H93.14v3h6.18v5.41ZM97.79,57h9.93a7.58,7.58,0,0,1,7.56,7.55V96a7.59,7.59,0,0,1-7.56,7.56H97.79v13.54A5.82,5.82,0,0,1,92,122.88H5.81A5.8,5.8,0,0,1,0,117.07V5.85a5.74,5.74,0,0,1,1.7-4.1A5.83,5.83,0,0,1,5.81.05H64.52a1.21,1.21,0,0,1,.42,0,2.72,2.72,0,0,1,1.75.69h.09A.77.77,0,0,1,67,.88L97,31.24a2.86,2.86,0,0,1,.87,2,2.91,2.91,0,0,1-.09.65V57ZM67.52,28v-19l21.42,21.7H70.19a2.81,2.81,0,0,1-1.89-.78A2.72,2.72,0,0,1,67.52,28Z"></path>
  </symbol>
  <symbol version="1.1" id="jpg-file-icon" xmlns="http://www.w3.org/2000/svg" xmlns:xlink="http://www.w3.org/1999/xlink" x="0px" y="0px" xml:space="preserve" viewBox="0 0 115.28 122.88">
    <g>
      <path d="M25.38,57h64.88V37.34H69.59c-2.17,0-5.19-1.17-6.62-2.6c-1.43-1.43-2.3-4.01-2.3-6.17V7.64l0,0H8.15 c-0.18,0-0.32,0.09-0.41,0.18C7.59,7.92,7.55,8.05,7.55,8.24v106.45c0,0.14,0.09,0.32,0.18,0.41c0.09,0.14,0.28,0.18,0.41,0.18 c22.78,0,58.09,0,81.51,0c0.18,0,0.17-0.09,0.27-0.18c0.14-0.09,0.33-0.28,0.33-0.41v-11.16H25.38c-4.14,0-7.56-3.4-7.56-7.56 V64.55C17.82,60.4,21.22,57,25.38,57L25.38,57z M97.79,57h9.93c4.16,0,7.56,3.41,7.56,7.56v31.42c0,4.15-3.41,7.56-7.56,7.56h-9.93 v13.55c0,1.61-0.65,3.04-1.7,4.1c-1.06,1.06-2.49,1.7-4.1,1.7c-29.44,0-56.59,0-86.18,0c-1.61,0-3.04-0.64-4.1-1.7 c-1.06-1.06-1.7-2.49-1.7-4.1V5.85c0-1.61,0.65-3.04,1.7-4.1c1.06-1.06,2.53-1.7,4.1-1.7h58.72C64.66,0,64.8,0,64.94,0 c0.64,0,1.29,0.28,1.75,0.69h0.09c0.09,0.05,0.14,0.09,0.23,0.18l29.99,30.36c0.51,0.51,0.88,1.2,0.88,1.98 c0,0.23-0.05,0.41-0.09,0.65V57L97.79,57z M67.52,27.97V8.94l21.43,21.7H70.19c-0.74,0-1.38-0.32-1.89-0.78 C67.84,29.4,67.52,28.71,67.52,27.97L67.52,27.97z M41.78,67.82h7.71v13.51c0,2.84-0.25,5-0.75,6.48c-0.5,1.48-1.52,2.73-3.04,3.76 c-1.52,1.03-3.47,1.54-5.85,1.54c-2.51,0-4.46-0.34-5.84-1.02c-1.38-0.68-2.45-1.67-3.2-2.98c-0.75-1.3-1.2-2.92-1.33-4.84l7.33-1 c0.01,1.09,0.11,1.9,0.29,2.43c0.18,0.53,0.49,0.96,0.92,1.29c0.3,0.21,0.71,0.32,1.26,0.32c0.86,0,1.49-0.32,1.9-0.96 c0.4-0.64,0.6-1.71,0.6-3.23V67.82L41.78,67.82z M53.47,67.82h12.79c2.79,0,4.87,0.66,6.26,1.99c1.38,1.33,2.08,3.21,2.08,5.66 c0,2.51-0.76,4.48-2.27,5.9c-1.51,1.42-3.82,2.13-6.93,2.13h-4.22v9.21h-7.71V67.82L53.47,67.82z M61.19,78.45h1.89 c1.49,0,2.54-0.26,3.15-0.78c0.6-0.52,0.9-1.18,0.9-1.98c0-0.78-0.26-1.44-0.79-1.99c-0.52-0.54-1.51-0.82-2.95-0.82h-2.2V78.45 L61.19,78.45z M90.02,83.7v-5.18h11.88v10.58c-2.28,1.55-4.29,2.61-6.03,3.17c-1.75,0.56-3.82,0.84-6.22,0.84 c-2.95,0-5.36-0.5-7.22-1.51c-1.86-1-3.3-2.5-4.33-4.49c-1.03-1.99-1.53-4.27-1.53-6.85c0-2.72,0.56-5.07,1.68-7.08 c1.12-2,2.76-3.53,4.92-4.57c1.69-0.81,3.96-1.2,6.81-1.2c2.75,0,4.8,0.25,6.16,0.75c1.37,0.5,2.5,1.27,3.39,2.32 c0.9,1.05,1.58,2.37,2.03,3.98l-7.4,1.33c-0.31-0.94-0.82-1.67-1.55-2.17c-0.73-0.5-1.66-0.75-2.79-0.75 c-1.68,0-3.02,0.59-4.03,1.75c-1,1.17-1.5,3.02-1.5,5.55c0,2.69,0.5,4.61,1.52,5.76c1.01,1.15,2.42,1.73,4.23,1.73 c0.86,0,1.67-0.12,2.46-0.37c0.78-0.25,1.67-0.67,2.68-1.26V83.7H90.02L90.02,83.7z"></path>
    </g>
  </symbol>
  <symbol version="1.1" id="png-file-icon" xmlns="http://www.w3.org/2000/svg" xmlns:xlink="http://www.w3.org/1999/xlink" x="0px" y="0px" xml:space="preserve" viewBox="0 0 115.28 122.88">
    <g>
      <path d="M25.38,57h64.88V37.34H69.59c-2.17,0-5.19-1.17-6.62-2.6c-1.43-1.43-2.3-4.01-2.3-6.17V7.64l0,0H8.15 c-0.18,0-0.32,0.09-0.41,0.18C7.59,7.92,7.55,8.05,7.55,8.24v106.45c0,0.14,0.09,0.32,0.18,0.41c0.09,0.14,0.28,0.18,0.41,0.18 c22.78,0,58.09,0,81.51,0c0.18,0,0.17-0.09,0.27-0.18c0.14-0.09,0.33-0.28,0.33-0.41v-11.16H25.38c-4.14,0-7.56-3.4-7.56-7.56 V64.55C17.82,60.4,21.22,57,25.38,57L25.38,57z M30.55,68.64h12.14c2.65,0,4.63,0.63,5.95,1.89c1.31,1.26,1.97,3.05,1.97,5.38 c0,2.39-0.72,4.26-2.16,5.6c-1.44,1.35-3.63,2.02-6.58,2.02h-4v8.75h-7.33V68.64L30.55,68.64z M37.87,78.74h1.8 c1.42,0,2.41-0.25,2.99-0.74c0.57-0.49,0.86-1.12,0.86-1.88c0-0.74-0.25-1.37-0.75-1.89c-0.49-0.52-1.43-0.78-2.81-0.78h-2.09 V78.74L37.87,78.74z M52.89,68.64h6.81l8.86,13.05V68.64h6.9v23.63h-6.9L59.75,79.3v12.97h-6.86V68.64L52.89,68.64z M90.6,83.73 v-4.92h11.29v10.05c-2.16,1.47-4.07,2.48-5.73,3.01c-1.66,0.53-3.63,0.8-5.91,0.8c-2.81,0-5.09-0.48-6.86-1.44 c-1.77-0.95-3.14-2.38-4.11-4.27c-0.97-1.89-1.46-4.06-1.46-6.51c0-2.58,0.53-4.82,1.6-6.73c1.06-1.9,2.62-3.35,4.67-4.34 c1.6-0.76,3.76-1.14,6.46-1.14c2.61,0,4.56,0.24,5.85,0.71c1.3,0.47,2.37,1.2,3.22,2.2c0.85,1,1.5,2.25,1.93,3.78l-7.03,1.27 c-0.29-0.9-0.78-1.58-1.47-2.06c-0.69-0.48-1.57-0.71-2.65-0.71c-1.59,0-2.87,0.56-3.82,1.67c-0.95,1.11-1.42,2.87-1.42,5.27 c0,2.55,0.48,4.38,1.44,5.47c0.96,1.09,2.3,1.64,4.02,1.64c0.81,0,1.59-0.12,2.33-0.35c0.74-0.24,1.58-0.64,2.54-1.2v-2.21H90.6 L90.6,83.73z M97.79,57h9.93c4.16,0,7.56,3.41,7.56,7.56v31.42c0,4.15-3.41,7.56-7.56,7.56h-9.93v13.55c0,1.61-0.65,3.04-1.7,4.1 c-1.06,1.06-2.49,1.7-4.1,1.7c-29.44,0-56.59,0-86.18,0c-1.61,0-3.04-0.64-4.1-1.7c-1.06-1.06-1.7-2.49-1.7-4.1V5.85 c0-1.61,0.65-3.04,1.7-4.1c1.06-1.06,2.53-1.7,4.1-1.7h58.72C64.66,0,64.8,0,64.94,0c0.64,0,1.29,0.28,1.75,0.69h0.09 c0.09,0.05,0.14,0.09,0.23,0.18l29.99,30.36c0.51,0.51,0.88,1.2,0.88,1.98c0,0.23-0.05,0.41-0.09,0.65V57L97.79,57z M67.52,27.97 V8.94l21.43,21.7H70.19c-0.74,0-1.38-0.32-1.89-0.78C67.84,29.4,67.52,28.71,67.52,27.97L67.52,27.97z"></path>
    </g>
  </symbol>
  <symbol id="webp-file-icon" xmlns="http://www.w3.org/2000/svg" viewBox="0 0 115.28 122.88">
    <defs></defs>
    <title>webp-file</title>
    <path d="M21,57H90.25V37.34H69.59A10.85,10.85,0,0,1,63,34.74a9.41,9.41,0,0,1-2.3-6.17V7.64H8.15a.59.59,0,0,0-.42.18.45.45,0,0,0-.18.42V114.69a.67.67,0,0,0,.18.41.51.51,0,0,0,.42.19h81.5c.19,0,.18-.1.27-.19s.33-.27.33-.41V103.53H21A7.58,7.58,0,0,1,13.47,96V64.55A7.58,7.58,0,0,1,21,57ZM44.63,70.07H51.5L48.28,90.6H39.7l-1.51-7.55H37.8L36.32,90.6H27.74L24.52,70.07h6.87l1.54,11.46h.2L35.5,70.07h5l2.34,11.46h.19l1.58-11.46ZM66.28,82.85H59.71v2.5h8.05V90.6H53.14V70.07H67.59l-.82,5.26H59.71v2.76h6.57v4.76Zm4.27,7.75V70.07H81.19c2,0,3.38.38,4.23,1.15a4.31,4.31,0,0,1,1.26,3.35,6.13,6.13,0,0,1-.8,3.4,3.68,3.68,0,0,1-2.16,1.56v.2c2.65.46,4,2.26,4,5.42a5.82,5.82,0,0,1-1.31,4,5.14,5.14,0,0,1-4,1.49Zm9.13-8.45h-3.1V86h3.07c.92,0,1.38-.83,1.38-1.94s-.45-1.95-1.35-1.95Zm-.49-7.85H76.58v3.6h2.58c.83,0,1.25-.78,1.25-1.8s-.41-1.8-1.22-1.8Zm21.65,11.34H96.57v5H90V70.07h10.35q7.07,0,7.06,7.59,0,4.17-1.84,6.17a5.38,5.38,0,0,1-1.9,1.29,7.11,7.11,0,0,1-2.83.52ZM96.57,74.78v5.88h1.51a4.57,4.57,0,0,0,1.73-.25c.36-.16.54-.54.54-1.13V76.16c0-.59-.18-1-.54-1.13a4.54,4.54,0,0,0-1.73-.25ZM97.79,57h9.93a7.58,7.58,0,0,1,7.56,7.55V96a7.59,7.59,0,0,1-7.56,7.56H97.79v13.54A5.82,5.82,0,0,1,92,122.88H5.81A5.8,5.8,0,0,1,0,117.07V5.85a5.74,5.74,0,0,1,1.7-4.1A5.83,5.83,0,0,1,5.81.05H64.52a1.21,1.21,0,0,1,.42,0,2.72,2.72,0,0,1,1.75.69h.09A.77.77,0,0,1,67,.88L97,31.24a2.86,2.86,0,0,1,.87,2,2.91,2.91,0,0,1-.09.65V57ZM67.52,28v-19l21.42,21.7H70.19a2.81,2.81,0,0,1-1.89-.78A2.72,2.72,0,0,1,67.52,28Z"></path>
  </symbol>
  <symbol version="1.1" id="check-mark-circle-icon" xmlns="http://www.w3.org/2000/svg" xmlns:xlink="http://www.w3.org/1999/xlink" x="0px" y="0px" enable-background="new 0 0 122.881 122.88" xml:space="preserve" viewBox="0 0 122.881 122.88">
    <g>
      <path fill-rule="evenodd" clip-rule="evenodd" d="M61.44,0c33.933,0,61.441,27.507,61.441,61.439 c0,33.933-27.508,61.44-61.441,61.44C27.508,122.88,0,95.372,0,61.439C0,27.507,27.508,0,61.44,0L61.44,0z M34.106,67.678 l-0.015-0.014c-0.785-0.718-1.207-1.685-1.256-2.669c-0.049-0.982,0.275-1.985,0.984-2.777c0.01-0.011,0.019-0.021,0.029-0.031 c0.717-0.784,1.684-1.207,2.668-1.256c0.989-0.049,1.998,0.28,2.792,0.998l12.956,11.748l31.089-32.559v0 c0.74-0.776,1.723-1.18,2.719-1.204c0.992-0.025,1.994,0.329,2.771,1.067v0.001c0.777,0.739,1.18,1.724,1.205,2.718 c0.025,0.993-0.33,1.997-1.068,2.773L55.279,81.769c-0.023,0.024-0.048,0.047-0.073,0.067c-0.715,0.715-1.649,1.095-2.598,1.13 c-0.974,0.037-1.963-0.293-2.744-1L34.118,67.688L34.106,67.678L34.106,67.678L34.106,67.678z"></path>
    </g>
  </symbol>
  <symbol version="1.1" id="data-backup-icon" xmlns="http://www.w3.org/2000/svg" xmlns:xlink="http://www.w3.org/1999/xlink" x="0px" y="0px" xml:space="preserve" viewBox="0 0 106.46 122.88">
    <g>
      <path d="M27.04,0h51.17c10.61,0,18.1,8.75,19.28,19.28l7.02,62.23c0.45,3.97,0.96,7.96,1.35,11.93 c0.27,2.71,0.46,5.21,0.54,7.53c0.14,3.85-0.02,7.15-0.63,10c-0.01,0.05-0.03,0.11-0.04,0.16c-0.56,6.55-6.1,11.75-12.8,11.75 H13.13c-3.62,0-6.89-1.51-9.24-3.94c-3.77-3.91-3.57-7.46-3.72-12.13c-0.08-2.33-0.16-4.83-0.18-7.34 c-0.04-5.8,0.43-9.6,1.02-15.28l6.74-64.91C8.85,8.73,16.44,0,27.04,0L27.04,0L27.04,0z M28.5,27.2l-0.09,17.34l17.34,0.09 l2.04,0.01l-1.44-1.46l-5.03-5.08c0.34-0.32,0.68-0.63,1.05-0.93c0.48-0.39,0.98-0.75,1.5-1.09l0,0c2.67-1.72,5.85-2.71,9.26-2.7h0 v0c4.67,0.02,8.9,1.94,11.95,5.02c3.05,3.08,4.93,7.32,4.9,11.99l0,0v0.02h0c-0.02,4.68-1.94,8.9-5.02,11.95 c-3.08,3.05-7.32,4.93-11.99,4.9v0h-0.04v0c-1.63-0.01-3.26-0.25-4.82-0.73l0,0c-0.86-0.26-1.71-0.6-2.52-0.99 c-4.13-2.02-7.32-5.69-8.72-10.14l-0.19-0.59l-10.41-0.04l0.2,1.02l0,0.03v0c0.34,1.7,0.87,3.37,1.53,4.97v0 c0.66,1.57,1.48,3.09,2.42,4.51c4.83,7.28,13.09,12.1,22.48,12.14h0v0c7.49,0.04,14.29-2.97,19.21-7.85v0 c4.92-4.88,8-11.64,8.03-19.12h0v-0.02h0c0.04-7.49-2.97-14.28-7.85-19.21l0,0c-4.87-4.92-11.63-7.99-19.11-8.03v0h-0.03v0 c-3.85-0.02-7.51,0.77-10.83,2.2c-0.54,0.23-1.07,0.48-1.59,0.75c-2.43,1.24-4.64,2.83-6.57,4.71l-4.23-4.26l-1.44-1.46L28.5,27.2 L28.5,27.2L28.5,27.2L28.5,27.2z M102.95,102.41c0-0.74-0.02-1.51-0.05-2.3c-0.13-3.45-0.51-6.46-1.04-11.02 c-0.87-0.34-1.81-0.52-2.79-0.52H7.46c-1.23,0-2.39,0.29-3.42,0.8c-0.56,3.9-0.56,7.77-0.45,12.36c2.33-3.32,6.18-4.53,10.52-4.53 h77.87C96.47,97.2,100.62,98.59,102.95,102.41L102.95,102.41z M14.96,107.86h19.74v7.01H14.96V107.86L14.96,107.86L14.96,107.86z"></path>
    </g>
  </symbol>
  <symbol version="1.1" id="image-file-icon" xmlns="http://www.w3.org/2000/svg" xmlns:xlink="http://www.w3.org/1999/xlink" x="0px" y="0px" xml:space="preserve" viewBox="0 0 102.55 122.88">
    <g>
      <path d="M102.55,122.88H0V0h77.66l24.89,26.44L102.55,122.88L102.55,122.88z M29.82,45.51c4.33,0,7.84,3.5,7.84,7.83 c0,4.32-3.51,7.83-7.84,7.83c-4.32,0-7.83-3.51-7.83-7.83C21.99,49.01,25.5,45.51,29.82,45.51L29.82,45.51z M62.71,75.27 l14.02-24.24l2.07-3.57l1.52,3.84l9.45,44.84h-75.3v-9.12l2.87-0.1l5.26-0.27l6.06-14.81l3.77,0.2l2.84,9.98l6.92,0l8-20.59 l1.43-3.69l2.12,3.33L62.71,75.27L62.71,75.27L62.71,75.27z M96.13,115.98V32.36H73.45V5.91H6.51v110.07H96.13L96.13,115.98 L96.13,115.98z"></path>
    </g>
  </symbol>
  <symbol version="1.1" id="ban-sign-icon" xmlns="http://www.w3.org/2000/svg" xmlns:xlink="http://www.w3.org/1999/xlink" x="0px" y="0px" enable-background="new 0 0 122.88 122.88" xml:space="preserve" viewBox="0 0 122.88 122.88">
    <g>
      <path fill-rule="evenodd" clip-rule="evenodd" d="M61.44,0c33.926,0,61.44,27.514,61.44,61.44c0,33.926-27.514,61.439-61.44,61.439 C27.513,122.88,0,95.366,0,61.44C0,27.514,27.513,0,61.44,0L61.44,0z M98.505,37.049L37.051,98.503 c6.999,4.617,15.379,7.307,24.389,7.307c24.5,0,44.369-19.869,44.369-44.369C105.809,52.431,103.119,44.05,98.505,37.049 L98.505,37.049L98.505,37.049z M24.378,85.829l61.453-61.454c-6.997-4.615-15.381-7.304-24.391-7.304 c-24.5,0-44.369,19.87-44.369,44.369C17.072,70.449,19.761,78.83,24.378,85.829L24.378,85.829L24.378,85.829z"></path>
    </g>
  </symbol>
  <symbol xmlns="http://www.w3.org/2000/svg" shape-rendering="geometricPrecision" text-rendering="geometricPrecision" image-rendering="optimizeQuality" fill-rule="evenodd" clip-rule="evenodd" viewBox="0 0 399 512.34" id="combine-left-right-outline-icon">
    <path fill-rule="nonzero" d="m0 84.87.03-.01c0-4.73 3.84-8.57 8.58-8.57h223.02V8.59c.02-1.96.69-3.94 2.05-5.55 3.06-3.62 8.48-4.07 12.1-1.01l150.06 127.4c.4.33.77.69 1.11 1.1 3.06 3.62 2.61 9.04-1.01 12.1L246.21 269.75a8.584 8.584 0 0 1-5.97 2.41 8.61 8.61 0 0 1-8.61-8.61v-67.67H119.62v32.96c-.03 2.42-1.04 4.83-3.03 6.52L14.65 322.62a8.543 8.543 0 0 1-6.04 2.48c-4.75 0-8.61-3.85-8.61-8.6V84.87zm399 342.6-.03.01c0 4.73-3.84 8.57-8.58 8.57H167.37v67.71a8.696 8.696 0 0 1-2.05 5.54c-3.06 3.62-8.48 4.07-12.1 1.01L3.16 382.91c-.4-.33-.77-.69-1.11-1.09-3.06-3.62-2.61-9.05 1.01-12.11L152.79 242.6a8.584 8.584 0 0 1 5.97-2.41c4.75 0 8.61 3.85 8.61 8.6v67.67h112.01V283.5a8.703 8.703 0 0 1 3.03-6.52l101.94-87.26a8.604 8.604 0 0 1 6.04-2.48 8.61 8.61 0 0 1 8.61 8.61v231.62zm-17.21-8.57V214.52l-85.2 72.91v37.64a8.6 8.6 0 0 1-8.6 8.6H158.76a8.6 8.6 0 0 1-8.6-8.6v-57.7L21.88 376.27l128.28 108.91v-57.71a8.6 8.6 0 0 1 8.6-8.6l223.03.03zM17.21 93.44v204.39l85.2-72.92v-37.63c0-4.76 3.85-8.61 8.6-8.61h129.23a8.61 8.61 0 0 1 8.61 8.61v57.7l128.27-108.91L248.85 27.16v57.71c0 4.75-3.86 8.6-8.61 8.6l-223.03-.03z"></path>
  </symbol>
  <symbol xmlns="http://www.w3.org/2000/svg" shape-rendering="geometricPrecision" text-rendering="geometricPrecision" image-rendering="optimizeQuality" fill-rule="evenodd" clip-rule="evenodd" viewBox="0 0 512 512" id="play-button-round-icon">
    <path fill-rule="nonzero" d="M255.99 0c70.68 0 134.7 28.66 181.02 74.98C483.33 121.3 512 185.31 512 256c0 70.68-28.67 134.69-74.99 181.01C390.69 483.33 326.67 512 255.99 512S121.3 483.33 74.98 437.01C28.66 390.69 0 326.68 0 256c0-70.67 28.66-134.7 74.98-181.02C121.3 28.66 185.31 0 255.99 0zm77.4 269.81c13.75-8.88 13.7-18.77 0-26.63l-110.27-76.77c-11.19-7.04-22.89-2.9-22.58 11.72l.44 154.47c.96 15.86 10.02 20.21 23.37 12.87l109.04-75.66zm79.35-170.56c-40.1-40.1-95.54-64.92-156.75-64.92-61.21 0-116.63 24.82-156.74 64.92-40.1 40.11-64.92 95.54-64.92 156.75 0 61.22 24.82 116.64 64.92 156.74 40.11 40.11 95.53 64.93 156.74 64.93 61.21 0 116.65-24.82 156.75-64.93 40.11-40.1 64.93-95.52 64.93-156.74 0-61.22-24.82-116.64-64.93-156.75z"></path>
  </symbol>
  <symbol xmlns="http://www.w3.org/2000/svg" xml:space="preserve" version="1.1" shape-rendering="geometricPrecision" text-rendering="geometricPrecision" image-rendering="optimizeQuality" fill-rule="evenodd" clip-rule="evenodd" xmlns:xlink="http://www.w3.org/1999/xlink" xmlnsXodm="http://www.corel.com/coreldraw/odm/2003" viewBox="0 0 512 347.28" id="open-folder-outline-icon">
    <g id="Layer_x0020_1">
      <metadata id="CorelCorpID_0Corel-Layer"></metadata>
      <path fill="black" fill-rule="nonzero" d="M121.35 118.09l260.64 0 0 -31.3c0.73,-7.76 -4.67,-9.69 -11.24,-9.98 -3.77,-0.18 -7.97,-0.2 -11.76,-0.01l-150.17 0c-36.03,0 -43.17,-19.04 -49.96,-37.13 -3.87,-10.32 -7.56,-20.17 -22.65,-20.17l-104.38 0c-6.76,0 -12.33,5.57 -12.33,12.33l0 253.04 61.44 -139.95c6.5,-14.82 24.13,-26.83 40.41,-26.83zm280.14 0l86.05 0c19.11,0 29.72,16.28 21.83,34.29l0.03 0.01 -73.77 168.06c-6.5,14.83 -24.14,26.83 -40.41,26.83l-366.19 0c-7.65,0 -13.84,-2.56 -18.08,-6.74 -6.2,-5.19 -10.95,-17.13 -10.95,-25.05l0 -283.66c0,-17.52 14.31,-31.83 31.83,-31.83l104.38 0c28.52,0 34.55,16.06 40.86,32.89 4.46,11.89 9.15,24.4 31.75,24.4 51.2,0 102.48,0.33 153.67,0.02 3.05,-0.03 6.18,-0.06 9.1,0.07 16.41,0.76 30.82,5.4 29.88,29.41l0.02 31.3zm85.97 19.05l-366.19 0c-8.66,0 -19,7.42 -22.44,15.25l-73.77 168.06 -0.03 -0.01c-2.05,4.68 -1.46,7.8 4.07,7.8l366.2 0c8.66,0 18.99,-7.43 22.43,-15.26l73.77 -168.06c0.07,0.03 4.09,-7.78 -4.04,-7.78z"></path>
    </g>
  </symbol>
  <symbol version="1.1" id="exclamation-triangle-line-icon" xmlns="http://www.w3.org/2000/svg" xmlns:xlink="http://www.w3.org/1999/xlink" x="0px" y="0px" enable-background="new 0 0 122.88 98.023" xml:space="preserve" viewBox="0 0 122.88 98.023">
    <g>
      <path d="M58.268,81.725c-0.169-0.405-0.253-0.843-0.253-1.309c0-0.467,0.084-0.904,0.253-1.31c0.167-0.403,0.418-0.772,0.752-1.105 V78h0.001l0.001-0.001c0.333-0.333,0.703-0.585,1.105-0.753c0.406-0.168,0.843-0.253,1.31-0.253c0.47,0,0.908,0.085,1.315,0.253 c0.397,0.165,0.762,0.41,1.091,0.736c0.006,0.005,0.012,0.011,0.018,0.017c0.334,0.333,0.584,0.702,0.753,1.107 s0.254,0.843,0.254,1.31c0,0.466-0.085,0.903-0.254,1.309c-0.168,0.404-0.419,0.773-0.753,1.106 c-0.335,0.336-0.706,0.59-1.112,0.76c-0.405,0.169-0.843,0.255-1.312,0.255c-0.466,0-0.903-0.086-1.307-0.256 c-0.396-0.166-0.761-0.413-1.091-0.74c-0.006-0.005-0.012-0.011-0.019-0.018C58.687,82.499,58.436,82.13,58.268,81.725 L58.268,81.725z M63.44,5.113c-0.166-0.268-0.38-0.465-0.643-0.593c-0.336-0.164-0.789-0.245-1.358-0.245s-1.021,0.081-1.357,0.245 c-0.263,0.128-0.478,0.326-0.643,0.593c-0.015,0.024-0.03,0.048-0.046,0.071L5.731,89.359h0c-0.302,0.489-0.566,1.057-0.795,1.704 c-0.243,0.692-0.443,1.466-0.6,2.322c-0.023,0.125-0.04,0.246-0.05,0.362h114.307c-0.01-0.116-0.026-0.237-0.05-0.362 c-0.157-0.856-0.356-1.63-0.6-2.322c-0.229-0.647-0.493-1.215-0.795-1.704l-0.011-0.018L63.458,5.138L63.44,5.113L63.44,5.113 L63.44,5.113z M64.651,0.679c1.006,0.489,1.809,1.22,2.413,2.197v0l53.663,84.175c0.016,0.023,0.031,0.047,0.046,0.071 c0.468,0.756,0.865,1.602,1.195,2.539c0.314,0.893,0.569,1.878,0.768,2.956c0.097,0.52,0.144,0.98,0.144,1.385 c0,0.98-0.24,1.811-0.717,2.488c-0.549,0.779-1.327,1.264-2.33,1.449c-0.3,0.056-0.59,0.084-0.872,0.084H3.919 c-0.282,0-0.572-0.028-0.872-0.084c-1.003-0.186-1.782-0.67-2.33-1.449C0.241,95.813,0,94.982,0,94.002 c0-0.404,0.048-0.865,0.145-1.385c0.198-1.078,0.453-2.063,0.768-2.956c0.33-0.938,0.728-1.783,1.195-2.539l0.001,0.001 l0.016-0.026L55.805,2.894l0.011-0.018c0.604-0.977,1.407-1.708,2.413-2.197C59.162,0.226,60.231,0,61.44,0 C62.649,0,63.718,0.226,64.651,0.679L64.651,0.679z M63.563,72.619c-0.004,0.805-0.57,1.313-1.295,1.531 c-0.263,0.079-0.546,0.119-0.827,0.119s-0.564-0.04-0.828-0.119c-0.724-0.218-1.291-0.727-1.295-1.531l-2.72-35.558 c0-0.008-0.001-0.016-0.001-0.024l0,0c0-0.871,1.297-1.399,2.957-1.605c0.597-0.074,1.242-0.112,1.887-0.112 s1.29,0.038,1.887,0.112c1.66,0.207,2.956,0.735,2.956,1.605c0,0.015-0.001,0.028-0.002,0.042L63.563,72.619L63.563,72.619z"></path>
    </g>
  </symbol>
  <symbol xmlns="http://www.w3.org/2000/svg" shape-rendering="geometricPrecision" text-rendering="geometricPrecision" image-rendering="optimizeQuality" fill-rule="evenodd" clip-rule="evenodd" viewBox="0 0 509 511.54" id="popup-link-icon">
    <path fill-rule="nonzero" d="M447.19 347.03c0-17.06 13.85-30.91 30.91-30.91 17.05 0 30.9 13.85 30.9 30.91v87.82c0 21.08-8.63 40.29-22.51 54.18-13.88 13.88-33.09 22.51-54.18 22.51H76.69c-21.09 0-40.3-8.63-54.18-22.51C8.63 475.14 0 455.93 0 434.85V76.69c0-21.09 8.63-40.3 22.51-54.18C36.39 8.63 55.6 0 76.69 0h86.98c17.06 0 30.9 13.85 30.9 30.9 0 17.06-13.84 30.91-30.9 30.91H76.69c-4.07 0-7.82 1.69-10.51 4.37-2.68 2.69-4.37 6.44-4.37 10.51v358.16c0 4.06 1.69 7.82 4.37 10.5 2.69 2.68 6.44 4.38 10.51 4.38h355.62c4.07 0 7.82-1.7 10.51-4.38 2.68-2.68 4.37-6.44 4.37-10.5v-87.82zm0-243.56L308.15 244.28c-11.91 12.12-31.45 12.28-43.56.37-12.11-11.91-12.28-31.45-.37-43.56L401.77 61.81H309.7c-17.06 0-30.9-13.85-30.9-30.91 0-17.05 13.84-30.9 30.9-30.9h168.4C495.15 0 509 13.85 509 30.9v165.04c0 17.06-13.85 30.9-30.9 30.9-17.06 0-30.91-13.84-30.91-30.9v-92.47z"></path>
  </symbol>
  <symbol version="1.1" id="question-mark-round-icon" xmlns="http://www.w3.org/2000/svg" xmlns:xlink="http://www.w3.org/1999/xlink" x="0px" y="0px" xml:space="preserve" viewBox="0 0 122.88 122.88">
    <g>
      <path d="M122.88,61.44C122.88,27.51,95.37,0,61.44,0C27.51,0,0,27.51,0,61.44c0,33.93,27.51,61.44,61.44,61.44 C95.37,122.88,122.88,95.37,122.88,61.44L122.88,61.44z M68.79,74.58H51.3v-1.75c0-2.97,0.32-5.39,1-7.25 c0.68-1.87,1.68-3.55,3.01-5.1c1.34-1.54,4.35-4.23,9.01-8.11c2.48-2.03,3.73-3.88,3.73-5.56c0-1.71-0.51-3.01-1.5-3.95 c-1-0.93-2.51-1.4-4.54-1.4c-2.19,0-3.98,0.73-5.4,2.16c-1.43,1.44-2.34,3.97-2.74,7.56l-17.88-2.22c0.61-6.57,3-11.86,7.15-15.85 c4.17-4.02,10.55-6.01,19.14-6.01c6.7,0,12.1,1.4,16.21,4.19c5.6,3.78,8.38,8.82,8.38,15.1c0,2.62-0.73,5.14-2.16,7.56 c-1.44,2.44-4.39,5.39-8.85,8.88c-3.09,2.48-5.05,4.44-5.86,5.93C69.19,70.24,68.79,72.19,68.79,74.58L68.79,74.58z M50.68,79.25 h18.76v16.53H50.68V79.25L50.68,79.25z"></path>
    </g>
  </symbol>
  <symbol xmlns="http://www.w3.org/2000/svg" xmlns:xlink="http://www.w3.org/1999/xlink" version="1.1" id="pause-button-icon" x="0px" y="0px" viewBox="0 0 122.88 122.88" style="enable-background:new 0 0 122.88 122.88" xml:space="preserve"><g><path d="M61.44,0c16.97,0,32.33,6.88,43.44,18c11.12,11.12,18,26.48,18,43.44c0,16.97-6.88,32.33-18,43.44 c-11.12,11.12-26.48,18-43.44,18c-16.97,0-32.33-6.88-43.44-18C6.88,93.77,0,78.41,0,61.44C0,44.47,6.88,29.11,18,18 C29.11,6.88,44.47,0,61.44,0L61.44,0z M42.3,39.47h13.59v43.95l-13.59,0V39.47L42.3,39.47L42.3,39.47z M66.99,39.47h13.59v43.95 l-13.59,0V39.47L66.99,39.47L66.99,39.47z M97.42,25.46c-9.21-9.21-21.93-14.9-35.98-14.9c-14.05,0-26.78,5.7-35.98,14.9 c-9.21,9.21-14.9,21.93-14.9,35.98s5.7,26.78,14.9,35.98c9.21,9.21,21.93,14.9,35.98,14.9c14.05,0,26.78-5.7,35.98-14.9 c9.21-9.21,14.9-21.93,14.9-35.98S106.63,34.66,97.42,25.46L97.42,25.46z"/></g></symbol>
  <symbol version="1.1" id="reload-sync-icon" xmlns="http://www.w3.org/2000/svg" xmlns:xlink="http://www.w3.org/1999/xlink" x="0px" y="0px" viewBox="0 0 118.307 122.88" enable-background="new 0 0 118.307 122.88" xml:space="preserve"><g><path d="M10.03,35.673c2.245-10.496,7.201-19.176,14.246-25.362C32.504,3.086,43.498-0.674,56.271,0.1 c1.916,0.113,3.377,1.758,3.265,3.674c-0.113,1.916-1.757,3.378-3.673,3.265C44.988,6.379,35.71,9.509,28.848,15.535 c-6.483,5.693-10.883,14.028-12.512,24.258l0.639,0.264l10.389-7.172c1.425-0.986,3.38-0.63,4.367,0.795 c0.986,1.426,0.63,3.381-0.795,4.366l-16.557,11.43c-1.425,0.986-3.38,0.63-4.366-0.795c-0.062-0.089-0.118-0.18-0.169-0.272 L9.84,48.409L0.39,31.146c-0.836-1.52-0.282-3.431,1.238-4.267c1.52-0.836,3.43-0.282,4.266,1.238L10.03,35.673L10.03,35.673z M99.032,23.108l-0.206,0.159l1.016,12.583c0.142,1.728-1.145,3.243-2.872,3.384c-1.727,0.142-3.242-1.145-3.384-2.872 L91.967,16.31c-0.142-1.728,1.144-3.243,2.871-3.384c0.108-0.009,0.215-0.013,0.32-0.011l0.001-0.002l19.675,0.446 c1.734,0.036,3.112,1.471,3.076,3.206c-0.035,1.734-1.471,3.111-3.206,3.075l-9.65-0.219c3.769,4.437,6.799,9.422,9.01,14.762 c2.775,6.698,4.243,13.922,4.243,21.281c0,3.63-0.358,7.25-1.064,10.812c-0.7,3.535-1.755,7.021-3.153,10.409 c-0.729,1.773-2.757,2.62-4.53,1.891c-1.773-0.729-2.619-2.757-1.891-4.529c1.207-2.924,2.125-5.974,2.745-9.104 c0.616-3.104,0.928-6.279,0.928-9.478c0-6.476-1.279-12.804-3.698-18.643C105.583,31.85,102.684,27.207,99.032,23.108 L99.032,23.108z M72.658,109.86c-5.729,1.047-11.558,1.181-17.277,0.427c-7.172-0.943-14.162-3.288-20.552-6.978l-0.01-0.006 l-0.003,0.006c-3.14-1.813-6.097-3.934-8.832-6.328c-2.73-2.392-5.223-5.045-7.437-7.923c-1.172-1.519-0.892-3.699,0.625-4.871 s3.699-0.892,4.871,0.626c1.948,2.533,4.131,4.857,6.512,6.943c2.377,2.082,4.97,3.939,7.743,5.54l-0.003,0.006 c5.588,3.225,11.705,5.274,17.983,6.101c5.35,0.705,10.824,0.517,16.196-0.593l-0.035-0.264l-11.405-5.411 c-1.566-0.741-2.236-2.612-1.495-4.179c0.741-1.567,2.613-2.236,4.18-1.495l18.177,8.624c1.566,0.741,2.235,2.612,1.494,4.18 c-0.046,0.097-0.097,0.191-0.15,0.282l0.002,0.001l-10.225,16.816c-0.898,1.483-2.83,1.959-4.314,1.061 c-1.484-0.897-1.96-2.829-1.062-4.313L72.658,109.86L72.658,109.86z"/></g></symbol>
  <symbol version="1.1" id="circle-center-icon" xmlns="http://www.w3.org/2000/svg" xmlns:xlink="http://www.w3.org/1999/xlink" x="0px" y="0px" viewBox="0 0 122.88 122.88" enable-background="new 0 0 122.88 122.88" xml:space="preserve"><g><path fill-rule="evenodd" clip-rule="evenodd" d="M61.438,0c33.938,0,61.442,27.509,61.442,61.442S95.375,122.88,61.438,122.88 C27.509,122.88,0,95.376,0,61.442S27.509,0,61.438,0L61.438,0z M61.442,43.027c10.17,0,18.413,8.245,18.413,18.416 c0,10.17-8.243,18.413-18.413,18.413c-10.171,0-18.416-8.243-18.416-18.413C43.026,51.272,51.271,43.027,61.442,43.027 L61.442,43.027z M61.438,18.389c23.778,0,43.054,19.279,43.054,43.054s-19.275,43.049-43.054,43.049 c-23.77,0-43.049-19.274-43.049-43.049S37.668,18.389,61.438,18.389L61.438,18.389z"/></g></symbol>
</svg>